<?xml version="1.0" encoding="utf-8"?>
<svg xmlns="http://www.w3.org/2000/svg" xmlns:xlink="http://www.w3.org/1999/xlink" style="margin: auto; background: rgb(255, 255, 255); display: block; shape-rendering: auto;" width="629px" height="629px" viewBox="0 0 100 100" preserveAspectRatio="xMidYMid">
<g transform="translate(50 50)">
<g>
<animateTransform attributeName="transform" type="rotate" values="0;51.42857142857143" keyTimes="0;1" dur="0.18726591760299627s" repeatCount="indefinite"></animateTransform><path d="M27.70830200499482 -11.5 L27.70830200499482 -11.5 L27.70830200499482 11.5 L27.70830200499482 11.5 A30 30 0 0 1 26.266905775318513 14.493090111861545 L26.266905775318513 14.493090111861545 L26.266905775318513 14.493090111861545 L8.284781678553825 28.83335555461242 L8.284781678553825 28.83335555461242 A30 30 0 0 1 5.04599374959591 29.572587764330653 L5.04599374959591 29.572587764330653 L5.04599374959591 29.572587764330653 L-17.377348230586037 24.45460628333542 L-17.377348230586037 24.45460628333542 A30 30 0 0 1 -19.974654489086593 22.38332365940351 L-19.974654489086593 22.38332365940351 L-19.974654489086593 22.38332365940351 L-29.95398048879043 1.661039697647866 L-29.95398048879043 1.661039697647866 A30 30 0 0 1 -29.953980488790435 -1.6610396976478587 L-29.953980488790435 -1.6610396976478587 L-29.953980488790435 -1.6610396976478587 L-19.9746544890866 -22.383323659403505 L-19.9746544890866 -22.383323659403505 A30 30 0 0 1 -17.377348230586033 -24.454606283335423 L-17.377348230586033 -24.454606283335423 L-17.377348230586033 -24.454606283335423 L5.045993749595889 -29.572587764330656 L5.045993749595889 -29.572587764330656 A30 30 0 0 1 8.284781678553832 -28.833355554612417 L8.284781678553832 -28.833355554612417 L8.284781678553832 -28.833355554612417 L26.266905775318506 -14.493090111861564 L26.266905775318506 -14.493090111861564 A30 30 0 0 1 27.70830200499482 -11.499999999999998 M0 -24A24 24 0 1 0 0 24 A24 24 0 1 0 0 -24" fill="#00418f"></path></g></g>
<!-- [ldio] generated by https://loading.io/ --></svg>